<svg width="210" height="40" viewBox="0 0 210 40" fill="none" xmlns="http://www.w3.org/2000/svg">
<path d="M30.3844 0H9.61511C4.30477 0 0 4.47689 0 9.99987V29.9996C0 35.5226 4.30477 39.9995 9.61511 39.9995H30.3844C35.6947 39.9995 39.9995 35.5226 39.9995 29.9996V9.99987C40 4.47689 35.6947 0 30.3844 0ZM7.52668 24.7697C3.33329 19.9454 3.5635 9.07209 10.8525 5.65993C14.4411 3.98023 18.1404 7.43076 15.9913 10.1352C10.861 16.5913 7.57304 24.4782 7.52668 24.7697ZM9.95457 24.7953C10.5999 23.2979 15.4637 13.5079 20.1969 8.77473C25.2845 3.68713 35.9111 14.3142 30.8021 19.38C26.0503 24.0924 16.2918 28.9567 14.7816 29.6223C12.4858 30.6343 8.95805 27.1065 9.95457 24.7953ZM33.901 28.7089C30.4888 35.9979 19.616 36.2281 14.7912 32.0347C15.0827 31.9884 22.9696 28.7004 29.4257 23.5702C32.1307 21.4215 35.5812 25.1204 33.901 28.7089Z" fill="white"/>
<path d="M60.8364 19.0437C63.0458 18.0307 64.1505 16.23 64.1505 13.6412C64.1505 11.5693 63.4402 9.96576 62.02 8.82855C60.5998 7.69135 58.6153 7.12274 56.068 7.12274H46.6666V32.825H56.5418C59.4045 32.825 61.6086 32.1818 63.1535 30.8954C64.6978 29.609 65.47 27.7806 65.47 25.4103C65.47 23.875 65.058 22.5433 64.2352 21.4146C63.4119 20.2854 62.279 19.4951 60.8364 19.0437ZM50.6569 10.6058H55.3918C56.9249 10.6058 58.0632 10.8765 58.8076 11.4174C59.5516 11.9583 59.9235 12.7816 59.9235 13.8863C59.9235 15.217 59.5345 16.198 58.7565 16.8284C57.9785 17.4599 56.7555 17.7754 55.0869 17.7754H50.6564V10.6058H50.6569ZM59.9401 28.3433C59.1391 29.0084 57.9497 29.3409 56.3723 29.3409H50.6569V21.2584H56.0003C59.4269 21.2584 61.1407 22.6339 61.1407 25.3847C61.1407 26.6924 60.7405 27.6794 59.9401 28.3433Z" fill="white"/>
<path d="M81.8039 18.1133C81.2172 17.1892 80.4173 16.473 79.4027 15.9657C78.388 15.4584 77.2492 15.2047 75.9868 15.2047C74.4083 15.2047 72.9823 15.6273 71.7086 16.4725C70.4345 17.3182 69.4481 18.4288 68.7494 19.8036C68.0503 21.1791 67.7012 22.6781 67.7012 24.3013C67.7012 26.1052 68.0561 27.6948 68.7665 29.0697C69.4769 30.4451 70.4457 31.5045 71.6751 32.2485C72.9039 32.9924 74.2841 33.3649 75.8178 33.3649C78.5681 33.3649 80.5638 32.4067 81.8039 30.4899L81.8716 32.8235H85.6259V15.7461H81.8716L81.8039 18.1133ZM80.5356 28.3098C79.5769 29.358 78.3315 29.8824 76.7989 29.8824C75.2652 29.8824 74.0198 29.358 73.0617 28.3098C72.103 27.2616 71.6244 25.9144 71.6244 24.2688C71.6244 22.6232 72.1089 21.2819 73.0787 20.2443C74.0481 19.2079 75.2881 18.6888 76.7989 18.6888C78.3091 18.6888 79.5492 19.2079 80.5191 20.2443C81.4884 21.2819 81.9734 22.6232 81.9734 24.2688C81.9728 25.9144 81.4938 27.2616 80.5356 28.3098Z" fill="white"/>
<path d="M93.6396 15.7461H89.7505V32.8245H93.6396V15.7461Z" fill="white"/>
<path d="M91.6785 6.95328C90.9793 6.95328 90.3985 7.17869 89.937 7.62953C89.4744 8.08089 89.2437 8.65589 89.2437 9.35399C89.2437 10.0532 89.4744 10.634 89.937 11.096C90.399 11.5586 90.9793 11.7893 91.6785 11.7893C92.3771 11.7893 92.958 11.5586 93.42 11.096C93.882 10.634 94.1133 10.0532 94.1133 9.35399C94.1133 8.65589 93.8815 8.08089 93.42 7.62953C92.9575 7.17923 92.3766 6.95328 91.6785 6.95328Z" fill="white"/>
<path d="M106.423 15.476C105.319 15.476 104.343 15.7467 103.498 16.2876C102.652 16.8285 101.993 17.606 101.519 18.6206L101.485 15.7461H97.7653V32.8245H101.654V24.7756C101.654 22.9952 102.038 21.6027 102.804 20.5987C103.571 19.5958 104.642 19.0938 106.017 19.0938C106.738 19.0938 107.415 19.2292 108.047 19.4993L108.419 15.8469C108.148 15.7344 107.821 15.6438 107.437 15.5761C107.054 15.5095 106.716 15.476 106.423 15.476Z" fill="white"/>
<path d="M122.03 16.2199C120.823 15.5437 119.443 15.2053 117.887 15.2053C116.173 15.2053 114.663 15.6055 113.355 16.4059C112.048 17.2063 111.039 18.2945 110.328 19.6694C109.618 21.0453 109.263 22.6003 109.263 24.3365C109.263 26.1851 109.669 27.7977 110.48 29.172C111.292 30.548 112.43 31.5903 113.896 32.3007C115.362 33.011 116.674 33.366 118.613 33.366C119.808 33.366 120.591 33.2359 121.741 32.9769C122.89 32.7179 123.883 32.3625 124.717 31.9117L124.311 28.8677C122.507 29.747 120.981 30.1861 118.951 30.1861C117.215 30.1861 116.201 29.7859 115.13 28.9861C114.059 28.1862 113.4 27.0532 113.152 25.5872H125.733C125.823 25.1593 125.868 24.5166 125.868 23.6592C125.868 21.9464 125.53 20.4463 124.854 19.1615C124.177 17.8767 123.236 16.8962 122.03 16.2199ZM113.119 22.6451C113.299 21.2478 113.795 20.1655 114.607 19.3986C115.418 18.6323 116.467 18.2492 117.752 18.2492C119.059 18.2492 120.085 18.6329 120.829 19.3986C121.573 20.1655 121.99 21.2478 122.08 22.6451H113.119Z" fill="white"/>
<path d="M135.776 22.5438C134.874 22.296 134.192 22.0652 133.73 21.8505C133.268 21.6368 132.936 21.3997 132.733 21.1401C132.53 20.8811 132.428 20.5374 132.428 20.1084C132.428 19.5452 132.687 19.1167 133.206 18.8236C133.724 18.5305 134.468 18.3834 135.438 18.3834C136.227 18.3834 137.067 18.5081 137.958 18.7554C138.848 19.0037 139.643 19.3304 140.342 19.7359L140.849 16.5572C140.218 16.1511 139.395 15.8245 138.38 15.5761C137.366 15.3283 136.362 15.2042 135.37 15.2042C133.296 15.2042 131.661 15.6667 130.467 16.5908C129.271 17.5153 128.674 18.7783 128.674 20.3786C128.674 21.7093 129.102 22.7969 129.959 23.6421C130.816 24.4878 132.214 25.1923 134.153 25.7556C135.144 26.0492 135.894 26.3023 136.402 26.5166C136.909 26.7308 137.269 26.9674 137.484 27.2269C137.698 27.4859 137.805 27.8414 137.805 28.2922C137.805 29.5552 136.655 30.1861 134.356 30.1861C133.454 30.1861 132.496 30.023 131.481 29.6958C130.467 29.3692 129.599 28.9578 128.878 28.4611L128.37 31.7416C129.024 32.2378 129.909 32.6327 131.025 32.9257C132.141 33.2183 133.285 33.3654 134.458 33.3654C136.667 33.3654 138.42 32.8975 139.717 31.9617C141.013 31.0265 141.661 29.7582 141.661 28.1574C141.661 26.7367 141.21 25.5984 140.309 24.7415C139.407 23.8851 137.896 23.1524 135.776 22.5438Z" fill="white"/>
<path d="M165.342 10.1986C162.811 7.89865 159.224 6.73267 154.681 6.73267H144.451V33.2141H154.309C158.963 33.2141 162.64 32.0433 165.238 29.7337C167.849 27.4134 169.173 24.118 169.173 19.9395C169.173 15.7866 167.884 12.5093 165.342 10.1986ZM163.05 19.9736C163.05 25.56 160.158 28.2757 154.207 28.2757H150.37V11.6721H154.242C160.169 11.6721 163.05 14.3872 163.05 19.9736Z" fill="white"/>
<path d="M185.257 15.7611C183.975 15.0438 182.472 14.6798 180.789 14.6798C178.968 14.6798 177.341 15.1024 175.955 15.9364C174.568 16.7704 173.485 17.9257 172.733 19.3704C171.985 20.806 171.607 22.4426 171.607 24.2342C171.607 26.1691 172.046 27.8808 172.914 29.3218C173.783 30.7681 175.017 31.8829 176.579 32.6343C178.126 33.3777 179.562 33.755 181.617 33.755C182.923 33.755 183.801 33.6265 184.995 33.3745C186.2 33.1197 187.238 32.7531 188.08 32.2852L188.31 32.1568L187.732 27.6581L187.238 27.9117C186.482 28.3013 185.621 28.6023 184.678 28.808C183.732 29.0148 183.131 29.1203 182.124 29.1203C179.204 29.1203 177.842 28.1131 177.174 26.0444H189.128L189.187 25.7258C189.304 25.0964 189.363 24.3898 189.363 23.6261C189.363 21.8111 189.001 20.2134 188.286 18.8769C187.565 17.5314 186.546 16.4831 185.257 15.7611ZM184.032 21.9848H177.107C177.323 21.1002 177.705 20.4021 178.246 19.9054C178.876 19.3256 179.663 19.0443 180.654 19.0443C181.663 19.0443 182.443 19.3235 183.038 19.8985C183.552 20.3946 183.885 21.0954 184.032 21.9848Z" fill="white"/>
<path d="M203.878 15.2212L200.038 26.6455L196.325 15.2212H190.299L197.263 33.2141H202.667L209.631 15.2212H203.878Z" fill="white"/>
</svg>
